<svg width="110" height="19" viewBox="0 0 110 19" fill="none" xmlns="http://www.w3.org/2000/svg">
<path d="M14.04 18.288C13.208 18.288 12.6 18.072 12.216 17.64C11.832 17.192 11.64 16.608 11.64 15.888C11.64 15.152 12 13.184 12.72 9.984C11.36 10.016 10.272 10.144 9.456 10.368C8.992 12.624 8.28 14.576 7.32 16.224C6.824 17.056 6.224 17.712 5.52 18.192C4.816 18.688 4.048 18.936 3.216 18.936C2.384 18.936 1.704 18.656 1.176 18.096C0.648 17.552 0.384 16.832 0.384 15.936C0.384 14.656 0.912 13.456 1.968 12.336C3.024 11.2 4.36 10.288 5.976 9.6C6.12 8.128 6.192 6.928 6.192 6C6.192 5.056 6.096 4.392 5.904 4.008C5.728 3.624 5.44 3.432 5.04 3.432C4.64 3.432 4.112 3.584 3.456 3.888C2.8 4.176 2.184 4.568 1.608 5.064L1.008 4.2C1.584 3.496 2.432 2.832 3.552 2.208C4.672 1.568 5.752 1.248 6.792 1.248C8.888 1.248 9.936 2.84 9.936 6.024C9.936 6.776 9.872 7.68 9.744 8.736C10.784 8.528 11.896 8.392 13.08 8.328C13.624 5.8 13.896 3.8 13.896 2.328C13.896 2.056 13.88 1.848 13.848 1.704C15.128 1.208 16.416 0.959999 17.712 0.959999C17.76 1.088 17.784 1.312 17.784 1.632C17.784 2.624 17.392 4.888 16.608 8.424C18.528 8.568 19.84 8.76 20.544 9C20.56 9.064 20.568 9.184 20.568 9.36C20.568 9.696 20.416 10.12 20.112 10.632C19.072 10.312 17.792 10.104 16.272 10.008C15.712 12.696 15.432 14.44 15.432 15.24C15.432 16.024 15.624 16.416 16.008 16.416C16.216 16.416 16.44 16.376 16.68 16.296L17.04 17.232C15.888 17.936 14.888 18.288 14.04 18.288ZM2.976 16.632C3.488 16.632 3.992 16.192 4.488 15.312C4.984 14.432 5.384 13.12 5.688 11.376C4.792 11.76 3.976 12.36 3.24 13.176C2.504 13.992 2.136 14.776 2.136 15.528C2.136 15.88 2.216 16.152 2.376 16.344C2.552 16.536 2.752 16.632 2.976 16.632ZM21.705 18.288C20.601 18.288 19.737 17.904 19.113 17.136C18.489 16.352 18.177 15.264 18.177 13.872C18.177 12.096 18.649 10.568 19.593 9.288C20.553 8.008 21.873 7.368 23.553 7.368L24.417 7.416C24.689 7.272 24.993 7.2 25.329 7.2C26.593 7.2 27.225 8.392 27.225 10.776C27.881 10.744 28.545 10.656 29.217 10.512L29.601 10.416L29.745 11.352C29.217 11.576 28.505 11.776 27.609 11.952L27.129 12.048C26.825 13.728 26.209 15.192 25.281 16.44C24.353 17.672 23.161 18.288 21.705 18.288ZM23.001 16.224C23.673 16.224 24.273 15.792 24.801 14.928C25.345 14.064 25.721 13.152 25.929 12.192C24.217 12.192 23.361 11.552 23.361 10.272C23.361 9.76 23.465 9.28 23.673 8.832L23.793 8.592C23.729 8.56 23.649 8.544 23.553 8.544C23.457 8.544 23.385 8.56 23.337 8.592C22.937 8.848 22.561 9.448 22.209 10.392C21.857 11.336 21.681 12.416 21.681 13.632C21.681 15.36 22.121 16.224 23.001 16.224ZM28.3914 18.072H27.9354C27.9354 17.32 28.1594 15.88 28.6074 13.752C29.0714 11.624 29.3034 10.416 29.3034 10.128C29.3034 9.6 29.0794 9.04 28.6314 8.448L28.4154 8.16L28.4394 7.848C29.3034 7.608 30.6874 7.488 32.5914 7.488C32.8154 7.792 32.9274 8.288 32.9274 8.976C34.3674 7.904 35.5114 7.368 36.3594 7.368C37.4314 7.368 38.0634 7.92 38.2554 9.024C38.6874 8.672 39.2474 8.312 39.9354 7.944C40.6394 7.56 41.2634 7.368 41.8074 7.368C42.3674 7.368 42.8314 7.552 43.1994 7.92C43.5674 8.272 43.7514 8.768 43.7514 9.408C43.7514 10.048 43.5754 11.104 43.2234 12.576C42.8714 14.048 42.6954 15.04 42.6954 15.552C42.6954 16.048 42.7674 16.296 42.9114 16.296C43.0074 16.296 43.3354 16.144 43.8954 15.84L44.1594 15.696L44.5914 16.536C44.1754 16.952 43.6074 17.352 42.8874 17.736C42.1834 18.104 41.5594 18.288 41.0154 18.288C39.8154 18.288 39.2154 17.608 39.2154 16.248C39.2154 15.752 39.3834 14.76 39.7194 13.272C40.0714 11.768 40.2474 10.792 40.2474 10.344C40.2474 9.88 40.1114 9.648 39.8394 9.648C39.3754 9.648 38.8474 9.824 38.2554 10.176C38.2234 10.496 37.9994 11.584 37.5834 13.44C37.1834 15.296 36.9834 16.736 36.9834 17.76C36.5194 17.968 35.4314 18.072 33.7194 18.072C33.6874 17.896 33.6714 17.472 33.6714 16.8C33.6714 16.128 33.8554 14.984 34.2234 13.368C34.6074 11.752 34.7994 10.728 34.7994 10.296C34.7994 9.864 34.6474 9.648 34.3434 9.648C33.8634 9.648 33.3354 9.84 32.7594 10.224C32.7274 10.368 32.5674 11.072 32.2794 12.336C31.7034 14.864 31.4154 16.664 31.4154 17.736C30.8554 17.96 29.8474 18.072 28.3914 18.072ZM45.2724 13.848C45.2724 11.848 45.8724 10.272 47.0724 9.12C48.2884 7.952 49.6644 7.368 51.2004 7.368C52.1444 7.368 52.9204 7.6 53.5284 8.064C54.1364 8.528 54.4404 9.152 54.4404 9.936C54.4404 10.704 54.2404 11.352 53.8404 11.88C53.4564 12.408 52.9844 12.816 52.4244 13.104C51.2884 13.664 50.2484 14.016 49.3044 14.16L48.7284 14.232C48.8404 15.736 49.4564 16.488 50.5764 16.488C50.9604 16.488 51.3684 16.392 51.8004 16.2C52.2324 16.008 52.5684 15.816 52.8084 15.624L53.1684 15.336L53.7444 16.104C53.6164 16.28 53.3604 16.512 52.9764 16.8C52.5924 17.088 52.2324 17.328 51.8964 17.52C50.9684 18.032 49.9524 18.288 48.8484 18.288C47.7444 18.288 46.8724 17.896 46.2324 17.112C45.5924 16.328 45.2724 15.24 45.2724 13.848ZM48.7044 13.056C49.5204 12.912 50.1684 12.568 50.6484 12.024C51.1284 11.48 51.3684 10.776 51.3684 9.912C51.3684 9.048 51.1124 8.616 50.6004 8.616C49.9924 8.616 49.5204 9.136 49.1844 10.176C48.8644 11.2 48.7044 12.16 48.7044 13.056ZM73.0791 18.288C72.2471 18.288 71.6391 18.072 71.2551 17.64C70.8711 17.192 70.6791 16.608 70.6791 15.888C70.6791 15.152 71.0391 13.184 71.7591 9.984C70.3991 10.016 69.3111 10.144 68.4951 10.368C68.0311 12.624 67.3191 14.576 66.3591 16.224C65.8631 17.056 65.2631 17.712 64.5591 18.192C63.8551 18.688 63.0871 18.936 62.2551 18.936C61.4231 18.936 60.7431 18.656 60.2151 18.096C59.6871 17.552 59.4231 16.832 59.4231 15.936C59.4231 14.656 59.9511 13.456 61.0071 12.336C62.0631 11.2 63.3991 10.288 65.0151 9.6C65.1591 8.128 65.2311 6.928 65.2311 6C65.2311 5.056 65.1351 4.392 64.9431 4.008C64.7671 3.624 64.4791 3.432 64.0791 3.432C63.6791 3.432 63.1511 3.584 62.4951 3.888C61.8391 4.176 61.2231 4.568 60.6471 5.064L60.0471 4.2C60.6231 3.496 61.4711 2.832 62.5911 2.208C63.7111 1.568 64.7911 1.248 65.8311 1.248C67.9271 1.248 68.9751 2.84 68.9751 6.024C68.9751 6.776 68.9111 7.68 68.7831 8.736C69.8231 8.528 70.9351 8.392 72.1191 8.328C72.6631 5.8 72.9351 3.8 72.9351 2.328C72.9351 2.056 72.9191 1.848 72.8871 1.704C74.1671 1.208 75.4551 0.959999 76.7511 0.959999C76.7991 1.088 76.8231 1.312 76.8231 1.632C76.8231 2.624 76.4311 4.888 75.6471 8.424C77.5671 8.568 78.8791 8.76 79.5831 9C79.5991 9.064 79.6071 9.184 79.6071 9.36C79.6071 9.696 79.4551 10.12 79.1511 10.632C78.1111 10.312 76.8311 10.104 75.3111 10.008C74.7511 12.696 74.4711 14.44 74.4711 15.24C74.4711 16.024 74.6631 16.416 75.0471 16.416C75.2551 16.416 75.4791 16.376 75.7191 16.296L76.0791 17.232C74.9271 17.936 73.9271 18.288 73.0791 18.288ZM62.0151 16.632C62.5271 16.632 63.0311 16.192 63.5271 15.312C64.0231 14.432 64.4231 13.12 64.7271 11.376C63.8311 11.76 63.0151 12.36 62.2791 13.176C61.5431 13.992 61.1751 14.776 61.1751 15.528C61.1751 15.88 61.2551 16.152 61.4151 16.344C61.5911 16.536 61.7911 16.632 62.0151 16.632ZM77.8104 16.2C77.8104 15.512 78.0184 14.344 78.4344 12.696C78.8504 11.032 79.0584 10.016 79.0584 9.648C79.0584 9.264 78.7704 8.76 78.1944 8.136L78.2184 7.824C79.3064 7.6 80.7384 7.488 82.5144 7.488C82.5944 7.696 82.6344 8.072 82.6344 8.616C82.6344 9.16 82.4104 10.32 81.9624 12.096C81.5144 13.872 81.2904 14.976 81.2904 15.408C81.2904 15.84 81.4504 16.056 81.7704 16.056C82.2344 16.056 82.7704 15.888 83.3784 15.552C83.4424 15.168 83.6024 14.432 83.8584 13.344C84.4344 10.784 84.7224 8.952 84.7224 7.848C85.2824 7.624 86.2904 7.512 87.7464 7.512H88.2024C88.2024 8.264 87.9784 9.736 87.5304 11.928C87.0824 14.104 86.8584 15.384 86.8584 15.768C86.8584 16.136 86.9384 16.32 87.0984 16.32C87.1944 16.32 87.6504 16.128 88.4664 15.744L88.9224 16.512C87.4984 17.696 86.2504 18.288 85.1784 18.288C84.6664 18.288 84.2264 18.144 83.8584 17.856C83.5064 17.568 83.3064 17.192 83.2584 16.728C81.9624 17.784 80.7864 18.312 79.7304 18.312C79.1704 18.312 78.7064 18.128 78.3384 17.76C77.9864 17.392 77.8104 16.872 77.8104 16.2ZM90.243 18.072H89.787C89.787 17.32 90.011 15.88 90.459 13.752C90.923 11.624 91.155 10.416 91.155 10.128C91.155 9.6 90.931 9.04 90.483 8.448L90.267 8.16L90.291 7.848C91.155 7.608 92.539 7.488 94.443 7.488C94.651 7.76 94.763 8.256 94.779 8.976C96.171 7.904 97.347 7.368 98.307 7.368C98.883 7.368 99.339 7.568 99.675 7.968C100.027 8.368 100.203 8.872 100.203 9.48C100.203 10.072 100.019 11.104 99.651 12.576C99.283 14.048 99.099 15.04 99.099 15.552C99.099 16.048 99.163 16.296 99.291 16.296C99.387 16.296 99.723 16.144 100.299 15.84L100.587 15.696L101.019 16.536C100.875 16.664 100.683 16.824 100.443 17.016C100.203 17.208 99.755 17.472 99.099 17.808C98.459 18.128 97.883 18.288 97.371 18.288C96.203 18.288 95.619 17.624 95.619 16.296C95.619 15.736 95.795 14.704 96.147 13.2C96.515 11.696 96.699 10.728 96.699 10.296C96.699 9.864 96.563 9.648 96.291 9.648C95.827 9.648 95.259 9.848 94.587 10.248C94.539 10.52 94.379 11.24 94.107 12.408C93.547 14.92 93.267 16.696 93.267 17.736C92.707 17.96 91.699 18.072 90.243 18.072ZM109.295 7.656C109.263 8.056 109.127 8.52 108.887 9.048C108.279 8.984 107.703 8.952 107.159 8.952H106.727C105.991 12.52 105.623 14.744 105.623 15.624C105.623 16.088 105.719 16.32 105.911 16.32C106.119 16.32 106.655 16.12 107.519 15.72L107.951 16.512C106.527 17.696 105.207 18.288 103.991 18.288C103.431 18.288 102.967 18.112 102.599 17.76C102.247 17.408 102.071 16.944 102.071 16.368C102.071 15.776 102.135 15.112 102.263 14.376C102.407 13.64 102.599 12.744 102.839 11.688C103.079 10.616 103.255 9.752 103.367 9.096C102.775 9.144 102.335 9.192 102.047 9.24C102.015 9.048 101.999 8.792 101.999 8.472C101.999 8.136 102.023 7.864 102.071 7.656H103.583C103.711 6.792 103.775 5.976 103.775 5.208L103.751 4.464V4.392C104.999 3.96 106.175 3.744 107.279 3.744C107.343 4.064 107.375 4.464 107.375 4.944C107.375 5.424 107.239 6.328 106.967 7.656H109.295Z" fill="#FDFDFD"/>
</svg>
